<svg width="1137" height="903" viewBox="0 0 1137 903" fill="none" xmlns="http://www.w3.org/2000/svg">
<g clip-path="url(#clip0_33_6)">
<path d="M154.862 903C240.39 903 309.724 897.713 309.724 891.191C309.724 884.668 240.39 879.381 154.862 879.381C69.334 879.381 0 884.668 0 891.191C0 897.713 69.334 903 154.862 903Z" fill="#F2F2F2"/>
<path d="M280.579 327.742C289.332 318.836 301.026 316.133 306.689 321.702C312.352 327.272 309.854 339.005 301.099 347.913C297.649 351.517 293.386 354.244 288.667 355.864L251.114 393.135L233.993 375.143L272.839 340.316C274.378 335.568 277.033 331.258 280.58 327.746L280.579 327.742Z" fill="#ED9DA0"/>
<path d="M160.455 296.981L199.836 384.336L262.722 350.299L285.228 362.243C285.228 362.243 233.826 448.176 198.621 438.394C163.416 428.611 100.918 339.911 112.179 312.535C123.441 285.159 160.458 296.98 160.458 296.98L160.455 296.981Z" fill="#D5C069"/>
<path d="M143.187 879.159H171.903L185.563 768.417H143.181L143.187 879.159Z" fill="#ED9DA0"/>
<path d="M241.57 878.508C242.465 880.013 242.936 884.872 242.936 886.623C242.936 889.207 241.91 891.686 240.082 893.513C238.255 895.341 235.777 896.368 233.192 896.368H144.262C143.389 896.368 142.524 896.196 141.718 895.862C140.911 895.528 140.178 895.039 139.561 894.421C138.944 893.804 138.454 893.071 138.12 892.265C137.786 891.458 137.614 890.594 137.614 889.721V886.02C137.614 886.02 133.212 874.893 142.271 861.174C142.271 861.174 153.529 871.911 170.348 855.093L175.308 846.108L211.213 872.364L231.115 874.813C235.468 875.349 239.329 874.73 241.569 878.505L241.57 878.508Z" fill="#2F2E41"/>
<path d="M164.916 302.586L165.497 263.86L141.614 248.974L115.643 280.739L164.916 302.586Z" fill="#ED9DA0"/>
<path d="M164.992 275.912C188.451 275.912 207.468 256.897 207.468 233.441C207.468 209.985 188.451 190.97 164.992 190.97C141.533 190.97 122.515 209.985 122.515 233.441C122.515 256.897 141.533 275.912 164.992 275.912Z" fill="#ED9DA0"/>
<path d="M222.92 558.658L183.352 827.882H133.707L140.309 674.202L143.783 593.395L133.702 554.932C130.502 548.804 127.675 542.488 125.237 536.02C120.875 524.325 117.427 510.303 122.539 503.649C124.421 501.198 129.314 499.389 135.964 498.032C140.56 497.139 145.198 496.479 149.861 496.054C179.218 493.15 220.978 494.964 220.978 494.964L222.04 529.993L222.629 549.553L222.92 558.658Z" fill="#2F2E41"/>
<path d="M92.6123 865.992L121.023 870.166L150.649 762.584L108.717 756.424L92.6123 865.992Z" fill="#ED9DA0"/>
<path d="M190.036 879.656C190.701 881.276 190.462 886.152 190.206 887.891C189.83 890.448 188.453 892.75 186.379 894.293C184.305 895.835 181.703 896.49 179.146 896.114L91.1654 883.174C90.3014 883.048 89.4709 882.752 88.7213 882.304C87.9716 881.856 87.3176 881.265 86.7965 880.564C86.2753 879.864 85.8974 879.067 85.6842 878.221C85.4709 877.374 85.4266 876.493 85.5537 875.63L86.0919 871.967C86.0919 871.967 83.3585 860.325 94.3135 848.069C94.3135 848.069 103.888 860.33 122.977 846.137L129.192 837.969L160.895 869.167L180.229 874.485C184.459 875.648 188.369 875.6 190.036 879.656Z" fill="#2F2E41"/>
<path d="M223.544 513.758L218.117 560.491L188.519 658.971L139.796 821.1L90.6855 813.883L134.762 583.358L130.399 543.828C130.399 543.828 128.979 539.9 127.349 534.147C124.116 522.766 120.059 504.234 124.522 494.781C125.078 493.549 125.856 492.43 126.816 491.478C128.571 489.775 132.138 488.743 136.918 488.195C156.894 485.937 198.033 492.394 216.337 495.563L223.545 513.756L223.544 513.758Z" fill="#2F2E41"/>
<path d="M121.104 272.548L169.358 295.708C169.358 295.708 220.508 447.207 220.508 454.927C220.508 462.646 234.984 467.472 226.298 476.157C217.613 484.841 242.465 492.2 229.074 499.133C215.684 506.066 132.145 544.015 122.862 540.59C97.2429 531.153 123.948 496.475 123.948 496.475C123.948 496.475 104.698 480.971 107.593 473.257C110.488 465.544 90.2212 317.899 90.2212 317.899L121.104 272.548Z" fill="#D5C069"/>
<path d="M162.396 243.613L167.86 254.546C167.86 254.546 173.324 234.88 182.06 230.51C190.795 226.14 191.894 219.578 191.894 219.578C191.894 219.578 202.828 233.776 210.47 230.51C218.112 227.245 221.404 225.047 212.655 211.937C203.907 198.827 206.1 205.382 206.1 205.382C206.1 205.382 198.45 194.449 199.544 197.733C200.637 201.017 192.988 188.993 192.988 192.27C192.988 195.547 187.524 185.715 187.524 188.992C187.524 192.269 164.577 181.344 167.856 185.714C171.135 190.084 148.185 176.969 137.266 194.445C126.346 211.921 111.188 208.693 116.578 219.596C121.969 230.5 119.786 260.002 119.786 260.002H134.852C134.852 260.002 150.378 230.503 162.399 243.613H162.396Z" fill="#090814"/>
<path d="M1127.16 445.379H502.46C499.851 445.376 497.348 444.338 495.503 442.493C493.658 440.648 492.62 438.146 492.617 435.537V163.906C492.62 161.296 493.658 158.795 495.503 156.949C497.348 155.104 499.851 154.067 502.46 154.064H1127.16C1129.77 154.067 1132.27 155.104 1134.11 156.949C1135.96 158.795 1137 161.296 1137 163.906V435.535C1137 438.145 1135.96 440.647 1134.11 442.492C1132.27 444.337 1129.77 445.376 1127.16 445.379ZM502.46 158.001C500.895 158.003 499.394 158.626 498.287 159.733C497.179 160.84 496.557 162.34 496.555 163.906V435.535C496.557 437.101 497.179 438.602 498.287 439.709C499.394 440.816 500.895 441.438 502.46 441.44H1127.16C1128.72 441.438 1130.22 440.816 1131.33 439.709C1132.44 438.602 1133.06 437.101 1133.06 435.535V163.906C1133.06 162.34 1132.44 160.84 1131.33 159.733C1130.22 158.626 1128.72 158.003 1127.16 158.001H502.46Z" fill="#E6E6E6"/>
<path d="M528.052 187.525C526.486 187.525 524.984 188.147 523.876 189.254C522.769 190.362 522.146 191.864 522.146 193.43C522.146 194.996 522.769 196.498 523.876 197.605C524.984 198.712 526.486 199.335 528.052 199.335H610.732C612.298 199.335 613.8 198.712 614.908 197.605C616.015 196.498 616.637 194.996 616.637 193.43C616.637 191.864 616.015 190.362 614.908 189.254C613.8 188.147 612.298 187.525 610.732 187.525H528.052Z" fill="#E6E6E6"/>
<path d="M1094.07 228.592V338.092H536.529V280.441C540.39 277.962 544.274 275.494 548.193 273.109C564.931 262.867 582.84 253.289 602.373 249.74C611.608 248.018 621.071 247.9 630.346 249.39C640.144 251.008 649.515 254.384 658.806 257.767C667.962 261.119 677.142 264.582 686.718 266.519C696.05 268.35 705.63 268.539 715.026 267.077C732.953 264.388 749.797 257.184 766.571 250.667C783.448 244.115 800.84 237.923 819.109 237.108C837.142 236.293 854.953 240.552 872.063 245.837C906.95 256.601 942.573 272.57 979.513 261.618C1017.02 250.515 1051.53 218.456 1093.1 227.969C1093.49 228.041 1093.84 228.262 1094.08 228.585L1094.07 228.592Z" fill="#F2F2F2"/>
<path d="M1094.07 230.502C1093.9 230.835 1093.61 231.1 1093.26 231.252C1092.92 231.404 1092.53 231.434 1092.17 231.339C1087.21 230.203 1082.14 229.679 1077.06 229.778C1036.16 230.499 1004.73 263.412 964.738 268.336C928.69 272.77 894.76 255.243 860.866 246.084C843.258 241.323 825.097 238.799 806.974 242.033C788.99 245.233 772.113 252.589 755.165 259.119C738.846 265.403 721.887 271.246 704.219 271.536C684.792 271.861 667.3 263.855 649.279 257.756C639.908 254.578 630.295 252.065 620.366 251.82C610.69 251.704 601.061 253.195 591.872 256.231C572.725 262.317 555.474 273.165 538.679 283.942C538.39 284.147 538.038 284.242 537.685 284.21C537.322 284.162 536.983 284.004 536.712 283.758C536.442 283.512 536.252 283.19 536.169 282.834C536.085 282.478 536.112 282.105 536.246 281.764C536.379 281.424 536.613 281.132 536.917 280.928L537.685 280.439C541.537 277.961 545.414 275.493 549.329 273.108C566.032 262.865 583.91 253.288 603.395 249.738C612.61 248.017 622.052 247.899 631.307 249.389C641.085 251.006 650.442 254.382 659.706 257.766C668.843 261.118 678.004 264.581 687.56 266.517C696.872 268.349 706.433 268.537 715.81 267.075C733.701 264.386 750.508 257.182 767.247 250.665C784.089 244.113 801.443 237.921 819.671 237.107C837.666 236.292 855.44 240.551 872.515 245.835C907.329 256.6 942.877 272.568 979.74 261.616C1017.17 250.513 1051.6 218.455 1093.09 227.967C1093.48 228.04 1093.83 228.261 1094.07 228.584C1094.25 228.87 1094.35 229.202 1094.35 229.542C1094.35 229.881 1094.25 230.214 1094.07 230.502Z" fill="#D5C069"/>
<path d="M613.352 258.955C617.852 258.955 621.5 255.308 621.5 250.809C621.5 246.309 617.852 242.662 613.352 242.662C608.852 242.662 605.204 246.309 605.204 250.809C605.204 255.308 608.852 258.955 613.352 258.955Z" fill="#D5C069"/>
<path d="M819.374 248.482C823.874 248.482 827.522 244.834 827.522 240.335C827.522 235.836 823.874 232.188 819.374 232.188C814.874 232.188 811.227 235.836 811.227 240.335C811.227 244.834 814.874 248.482 819.374 248.482Z" fill="#D5C069"/>
<path d="M1046.09 256.868C1050.59 256.868 1054.24 253.221 1054.24 248.721C1054.24 244.222 1050.59 240.575 1046.09 240.575C1041.59 240.575 1037.94 244.222 1037.94 248.721C1037.94 253.221 1041.59 256.868 1046.09 256.868Z" fill="#D5C069"/>
<path d="M608.764 384.358C607.198 384.358 605.696 384.981 604.588 386.088C603.481 387.195 602.858 388.697 602.858 390.263C602.858 391.829 603.481 393.331 604.588 394.439C605.696 395.546 607.198 396.168 608.764 396.168H691.444C693.01 396.168 694.512 395.546 695.62 394.439C696.727 393.331 697.349 391.829 697.349 390.263C697.349 388.697 696.727 387.195 695.62 386.088C694.512 384.981 693.01 384.358 691.444 384.358H608.764Z" fill="#E6E6E6"/>
<path d="M555.612 411.915C567.934 411.915 577.922 401.927 577.922 389.607C577.922 377.287 567.934 367.3 555.612 367.3C543.29 367.3 533.302 377.287 533.302 389.607C533.302 401.927 543.29 411.915 555.612 411.915Z" fill="#D5C069"/>
<path d="M808.246 384.358C806.68 384.358 805.178 384.981 804.071 386.088C802.963 387.195 802.341 388.697 802.341 390.263C802.341 391.829 802.963 393.331 804.071 394.439C805.178 395.546 806.68 396.168 808.246 396.168H890.926C892.492 396.168 893.995 395.546 895.102 394.439C896.21 393.331 896.832 391.829 896.832 390.263C896.832 388.697 896.21 387.195 895.102 386.088C893.995 384.981 892.492 384.358 890.926 384.358H808.246Z" fill="#E6E6E6"/>
<path d="M755.095 411.915C767.416 411.915 777.405 401.927 777.405 389.607C777.405 377.287 767.416 367.3 755.095 367.3C742.773 367.3 732.784 377.287 732.784 389.607C732.784 401.927 742.773 411.915 755.095 411.915Z" fill="#D5C069"/>
<path d="M1007.73 384.358C1006.16 384.358 1004.66 384.981 1003.55 386.088C1002.45 387.195 1001.82 388.697 1001.82 390.263C1001.82 391.829 1002.45 393.331 1003.55 394.439C1004.66 395.546 1006.16 396.168 1007.73 396.168H1090.41C1091.98 396.168 1093.48 395.546 1094.59 394.439C1095.69 393.331 1096.32 391.829 1096.32 390.263C1096.32 388.697 1095.69 387.195 1094.59 386.088C1093.48 384.981 1091.98 384.358 1090.41 384.358H1007.73Z" fill="#E6E6E6"/>
<path d="M954.578 411.915C966.9 411.915 976.888 401.927 976.888 389.607C976.888 377.287 966.9 367.3 954.578 367.3C942.256 367.3 932.268 377.287 932.268 389.607C932.268 401.927 942.256 411.915 954.578 411.915Z" fill="#D5C069"/>
<path d="M590.94 82.4633H282.738C276.73 82.4633 271.861 78.9948 271.854 74.7213V7.74349C271.854 3.46998 276.73 0.00146484 282.738 0.00146484H590.94C596.948 0.00146484 601.817 3.46998 601.824 7.74349V74.7199C601.819 78.9934 596.948 82.4576 590.94 82.4633ZM282.738 3.09513C279.132 3.09513 276.206 5.17652 276.206 7.74063V74.717C276.206 77.2811 279.131 79.3597 282.738 79.3625H590.94C594.546 79.3625 597.472 77.2811 597.472 74.717V7.74349C597.472 5.17938 594.547 3.10083 590.94 3.09799L282.738 3.09513Z" fill="#E6E6E6"/>
<path d="M352.426 38.064C350.686 38.0662 349.019 38.7582 347.789 39.9881C346.559 41.218 345.867 42.8854 345.864 44.6247V90.553C345.867 92.2923 346.559 93.9598 347.789 95.1897C349.019 96.4196 350.686 97.1115 352.426 97.1138H587.343C589.083 97.1115 590.751 96.4196 591.981 95.1897C593.211 93.9598 593.903 92.2923 593.905 90.553V44.6247C593.903 42.8854 593.211 41.218 591.981 39.9881C590.751 38.7582 589.083 38.0662 587.343 38.064H352.426Z" fill="#D5C069"/>
<path d="M385.237 82.6807C393.21 82.6807 399.674 76.218 399.674 68.2459C399.674 60.2737 393.21 53.811 385.237 53.811C377.264 53.811 370.8 60.2737 370.8 68.2459C370.8 76.218 377.264 82.6807 385.237 82.6807Z" fill="white"/>
<path d="M451.03 61.979C449.463 61.979 447.961 62.6011 446.854 63.7085C445.746 64.8159 445.124 66.3178 445.124 67.8838C445.124 69.4499 445.746 70.9518 446.854 72.0592C447.961 73.1666 449.463 73.7887 451.03 73.7887H533.709C535.276 73.7887 536.778 73.1666 537.885 72.0592C538.993 70.9518 539.615 69.4499 539.615 67.8838C539.615 66.3178 538.993 64.8159 537.885 63.7085C536.778 62.6011 535.276 61.979 533.709 61.979H451.03Z" fill="white"/>
<path d="M742.757 594.848H434.554C428.546 594.848 423.677 591.38 423.67 587.106V520.128C423.67 515.855 428.546 512.386 434.554 512.386H742.757C748.765 512.386 753.634 515.855 753.641 520.128V587.105C753.635 591.378 748.765 594.842 742.757 594.848ZM434.554 515.48C430.949 515.48 428.022 517.561 428.022 520.125V587.102C428.022 589.666 430.947 591.744 434.554 591.747H742.757C746.362 591.747 749.289 589.666 749.289 587.102V520.128C749.289 517.564 746.363 515.486 742.757 515.483L434.554 515.48Z" fill="#E6E6E6"/>
<path d="M504.243 550.45C502.504 550.452 500.836 551.144 499.606 552.374C498.376 553.604 497.684 555.272 497.682 557.011V602.939C497.684 604.679 498.376 606.346 499.606 607.576C500.836 608.806 502.504 609.498 504.243 609.5H739.161C740.9 609.498 742.568 608.806 743.798 607.576C745.028 606.346 745.72 604.679 745.722 602.939V557.011C745.72 555.272 745.028 553.604 743.798 552.374C742.568 551.144 740.9 550.452 739.161 550.45H504.243Z" fill="#D5C069"/>
<path d="M537.053 595.065C545.026 595.065 551.49 588.603 551.49 580.631C551.49 572.658 545.026 566.196 537.053 566.196C529.08 566.196 522.616 572.658 522.616 580.631C522.616 588.603 529.08 595.065 537.053 595.065Z" fill="white"/>
<path d="M602.845 574.365C601.279 574.365 599.777 574.987 598.669 576.095C597.562 577.202 596.939 578.704 596.939 580.27C596.939 581.836 597.562 583.338 598.669 584.445C599.777 585.553 601.279 586.175 602.845 586.175H685.525C687.091 586.175 688.593 585.553 689.701 584.445C690.808 583.338 691.43 581.836 691.43 580.27C691.43 578.704 690.808 577.202 689.701 576.095C688.593 574.987 687.091 574.365 685.525 574.365H602.845Z" fill="white"/>
<path d="M326.471 449.245L257.351 398.984C256.154 398.11 255.353 396.799 255.122 395.335C254.891 393.872 255.249 392.377 256.118 391.178C259.683 359.313 288.741 328.11 324.555 297.083C325.428 295.886 326.74 295.084 328.204 294.853C329.667 294.622 331.163 294.981 332.362 295.851L401.477 346.114C402.675 346.986 403.477 348.298 403.708 349.762C403.939 351.225 403.58 352.72 402.71 353.919C373.655 383.433 350.362 414.654 334.277 448.013C333.404 449.209 332.092 450.011 330.629 450.242C329.165 450.473 327.67 450.114 326.471 449.245Z" fill="#E6E6E6"/>
<path d="M398.353 348.604L377.313 333.305C364.482 324.033 348.504 320.214 332.868 322.683C317.232 325.151 303.208 333.706 293.86 346.479L260.381 392.501C259.885 393.183 259.68 394.033 259.811 394.866C259.942 395.699 260.398 396.446 261.079 396.943L327.875 445.509C328.558 446.003 329.409 446.207 330.241 446.074C331.074 445.942 331.82 445.485 332.316 444.803C346.052 410.386 368.963 380.098 399.053 353.041C399.548 352.36 399.752 351.51 399.62 350.678C399.489 349.846 399.033 349.1 398.353 348.604Z" fill="white"/>
<path d="M315.322 414.186L301.621 404.223C301.441 404.092 301.237 403.998 301.021 403.946C300.805 403.894 300.58 403.885 300.361 403.919C300.141 403.954 299.93 404.032 299.74 404.148C299.551 404.264 299.386 404.416 299.255 404.596C299.124 404.776 299.03 404.98 298.978 405.196C298.926 405.412 298.917 405.637 298.952 405.857C298.986 406.076 299.064 406.287 299.18 406.477C299.296 406.666 299.449 406.831 299.628 406.962L313.33 416.926C313.693 417.19 314.146 417.299 314.59 417.229C315.034 417.159 315.432 416.916 315.696 416.552C315.96 416.189 316.069 415.736 315.999 415.292C315.929 414.848 315.686 414.45 315.322 414.186Z" fill="#CCCCCC"/>
<path d="M336.849 418.319L306.759 396.438C306.396 396.174 305.942 396.065 305.498 396.135C305.055 396.205 304.657 396.448 304.392 396.811C304.128 397.175 304.019 397.628 304.089 398.072C304.159 398.516 304.403 398.913 304.766 399.178L334.856 421.059C335.219 421.323 335.673 421.432 336.117 421.362C336.56 421.292 336.958 421.049 337.222 420.686C337.487 420.322 337.596 419.869 337.526 419.425C337.456 418.981 337.212 418.584 336.849 418.319Z" fill="#CCCCCC"/>
<path d="M285.832 382.059C279.907 383.757 276.482 389.936 278.181 395.86C279.88 401.784 286.06 405.209 291.984 403.511C297.908 401.812 301.334 395.633 299.635 389.71C297.936 383.786 291.756 380.36 285.832 382.059Z" fill="#D5C069"/>
<path d="M331.627 395.705L294.67 368.825C294.305 368.616 293.876 368.549 293.466 368.637C293.055 368.724 292.691 368.961 292.444 369.301C292.197 369.64 292.084 370.059 292.127 370.477C292.17 370.895 292.366 371.282 292.677 371.565L329.635 398.445C330 398.656 330.429 398.724 330.841 398.636C331.252 398.548 331.617 398.312 331.864 397.971C332.112 397.631 332.225 397.211 332.181 396.792C332.137 396.374 331.94 395.986 331.627 395.705Z" fill="#CCCCCC"/>
<path d="M351.429 398.582L299.846 361.073C299.481 360.855 299.048 360.782 298.632 360.867C298.216 360.952 297.846 361.19 297.596 361.533C297.346 361.876 297.234 362.301 297.28 362.723C297.327 363.145 297.529 363.534 297.848 363.815L349.436 401.323C349.801 401.534 350.23 401.601 350.642 401.514C351.054 401.426 351.418 401.19 351.666 400.849C351.913 400.509 352.026 400.089 351.982 399.67C351.938 399.252 351.741 398.864 351.429 398.582Z" fill="#CCCCCC"/>
<path d="M345.135 377.133L308.178 350.253C307.813 350.044 307.384 349.977 306.973 350.065C306.563 350.153 306.199 350.389 305.952 350.729C305.704 351.069 305.592 351.488 305.635 351.905C305.678 352.323 305.874 352.711 306.185 352.993L343.143 379.874C343.507 380.084 343.937 380.152 344.349 380.064C344.76 379.977 345.125 379.74 345.372 379.399C345.62 379.059 345.732 378.639 345.689 378.221C345.645 377.802 345.448 377.415 345.135 377.133Z" fill="#CCCCCC"/>
<path d="M379.674 362.609L342.716 335.729C342.352 335.52 341.923 335.453 341.512 335.541C341.101 335.629 340.737 335.865 340.49 336.205C340.243 336.545 340.13 336.964 340.173 337.382C340.216 337.799 340.412 338.187 340.723 338.469L377.681 365.35C378.046 365.56 378.476 365.628 378.887 365.54C379.299 365.453 379.663 365.216 379.911 364.876C380.158 364.535 380.271 364.115 380.227 363.697C380.183 363.278 379.986 362.891 379.674 362.609Z" fill="#D5C069"/>
<path d="M364.937 380.011L313.354 342.501C312.989 342.283 312.556 342.21 312.14 342.295C311.724 342.38 311.354 342.618 311.104 342.961C310.854 343.304 310.741 343.729 310.788 344.151C310.834 344.573 311.037 344.963 311.356 345.243L362.944 382.752C363.309 382.962 363.738 383.03 364.15 382.942C364.561 382.855 364.926 382.618 365.174 382.277C365.421 381.937 365.534 381.517 365.49 381.099C365.446 380.68 365.249 380.293 364.937 380.011Z" fill="#CCCCCC"/>
<path d="M268.139 406.041C280.114 402.503 291.647 405.814 293.898 413.435C296.149 421.057 288.265 430.099 276.29 433.637C271.524 435.116 266.473 435.432 261.56 434.559L210.629 448.907L204.404 424.866L255.274 413.273C258.925 409.87 263.339 407.39 268.146 406.042L268.139 406.041Z" fill="#ED9DA0"/>
<path d="M178.055 320.84L170.072 416.326L241.576 417.094L255.453 438.46C255.453 438.46 168.786 488.635 142.762 462.998C116.739 437.361 105.162 329.473 128.299 311.003C151.435 292.533 178.055 320.837 178.055 320.837V320.84Z" fill="#D5C069"/>
</g>
<defs>
<clipPath id="clip0_33_6">
<rect width="1137" height="903" fill="white"/>
</clipPath>
</defs>
</svg>
