<svg width="1126" height="850" viewBox="0 0 1126 850" fill="none" xmlns="http://www.w3.org/2000/svg">
<g clip-path="url(#clip0_33_100)">
<path d="M15.3589 836.368C15.364 836.654 15.4255 836.936 15.5399 837.198C15.6542 837.46 15.8191 837.696 16.0252 837.895C16.2312 838.093 16.4743 838.249 16.7407 838.353C17.007 838.457 17.2912 838.508 17.5772 838.502H1123.78C1124.07 838.514 1124.36 838.468 1124.63 838.366C1124.89 838.264 1125.14 838.109 1125.35 837.91C1125.56 837.711 1125.72 837.471 1125.84 837.206C1125.95 836.941 1126.01 836.656 1126.01 836.368C1126.01 836.08 1125.95 835.795 1125.84 835.53C1125.72 835.265 1125.56 835.026 1125.35 834.827C1125.14 834.627 1124.89 834.472 1124.63 834.37C1124.36 834.269 1124.07 834.223 1123.78 834.235H17.5772C17.2913 834.229 17.0072 834.28 16.741 834.384C16.4747 834.488 16.2316 834.643 16.0256 834.842C15.8196 835.04 15.6546 835.276 15.5402 835.538C15.4258 835.8 15.3642 836.082 15.3589 836.368Z" fill="#CCCCCC"/>
<path d="M579.067 625.809C577.623 634.539 573.125 642.473 566.374 648.197C559.623 653.921 551.058 657.063 542.205 657.063C533.353 657.063 524.788 653.921 518.037 648.197C511.286 642.473 506.788 634.539 505.344 625.809H411.038V830.088H673.371V625.809H579.067Z" fill="#D6D6E3"/>
<path d="M441.544 829.331H415.615V833.905H441.544V829.331Z" fill="#B6B3C5"/>
<path d="M671.084 830.092H645.155V834.666H671.084V830.092Z" fill="#B6B3C5"/>
<path d="M674.138 813.909H411.803V821.02H674.138V813.909Z" fill="#090814"/>
<path d="M1058.56 25H26V607.361H1058.56V25Z" fill="white" fill-opacity="0.75"/>
<path d="M1069.77 13L1069.93 13.0078C1070.31 13.0455 1070.66 13.2119 1070.93 13.4805C1071.2 13.7487 1071.37 14.1001 1071.4 14.4727L1071.41 14.6328V616.511C1071.41 616.942 1071.24 617.357 1070.93 617.664C1070.63 617.971 1070.21 618.144 1069.77 618.145H14.6396C14.203 618.144 13.7853 617.971 13.4785 617.664C13.2102 617.396 13.0452 617.045 13.0078 616.673L13 616.512V14.6328C13.0005 14.2018 13.1719 13.787 13.4785 13.4805C13.747 13.2122 14.1002 13.0456 14.4766 13.0078L14.6396 13H1069.77Z" stroke="black" stroke-width="26"/>
<path d="M543.174 314.365L432.462 231.478L323.264 313.232L320.763 309.9L432.462 226.273L542.648 308.766L652.14 188.997L652.581 188.818L763.03 144.338L764.588 148.203L654.579 192.506L543.174 314.365Z" fill="white"/>
<path d="M875.916 467.79H210.023C209.471 467.79 208.941 467.571 208.55 467.18C208.159 466.789 207.939 466.26 207.939 465.707V146.69C207.939 146.138 208.159 145.608 208.55 145.217C208.941 144.826 209.471 144.607 210.023 144.607C210.576 144.607 211.106 144.826 211.497 145.217C211.888 145.608 212.107 146.138 212.107 146.69V463.624H875.916C876.469 463.624 876.999 463.844 877.389 464.234C877.78 464.625 878 465.155 878 465.707C878 466.26 877.78 466.789 877.389 467.18C876.999 467.571 876.469 467.79 875.916 467.79Z" fill="#3F3D56"/>
<path d="M352.297 444.877H291.731C290.091 444.876 288.519 444.224 287.359 443.065C286.199 441.906 285.546 440.334 285.544 438.695V355.242C285.546 353.602 286.199 352.031 287.359 350.872C288.519 349.713 290.091 349.061 291.731 349.059H352.296C353.936 349.061 355.508 349.713 356.668 350.872C357.828 352.031 358.481 353.602 358.483 355.242V438.696C358.48 440.335 357.828 441.906 356.668 443.065C355.509 444.224 353.937 444.875 352.297 444.877Z" fill="url(#paint0_linear_33_100)"/>
<path d="M462.747 444.876H402.18C400.54 444.874 398.968 444.223 397.808 443.064C396.648 441.904 395.996 440.333 395.994 438.694V276.087C395.996 274.448 396.648 272.876 397.808 271.717C398.968 270.558 400.54 269.906 402.18 269.905H462.745C464.385 269.906 465.958 270.558 467.118 271.717C468.277 272.876 468.93 274.448 468.932 276.087V438.694C468.93 440.333 468.277 441.904 467.118 443.064C465.958 444.223 464.385 444.874 462.745 444.876H462.747Z" fill="url(#paint1_linear_33_100)"/>
<path d="M573.195 444.877H512.628C510.988 444.876 509.416 444.224 508.256 443.065C507.096 441.906 506.444 440.334 506.442 438.695V355.242C506.444 353.602 507.096 352.031 508.256 350.872C509.416 349.713 510.988 349.061 512.628 349.059H573.194C574.834 349.061 576.406 349.713 577.566 350.872C578.726 352.031 579.378 353.602 579.38 355.242V438.696C579.378 440.335 578.725 441.906 577.566 443.065C576.406 444.224 574.834 444.875 573.195 444.877Z" fill="url(#paint2_linear_33_100)"/>
<path d="M683.643 444.877H623.076C621.474 444.912 619.922 444.31 618.763 443.204C617.603 442.098 616.93 440.577 616.89 438.975V244.563C616.929 242.961 617.603 241.44 618.762 240.334C619.922 239.227 621.473 238.625 623.076 238.66H683.641C685.244 238.625 686.795 239.227 687.955 240.333C689.114 241.44 689.788 242.96 689.828 244.562V438.974C689.788 440.575 689.115 442.096 687.956 443.203C686.796 444.31 685.245 444.912 683.643 444.877Z" fill="url(#paint3_linear_33_100)"/>
<path d="M794.092 444.877H733.525C731.885 444.875 730.313 444.223 729.153 443.064C727.993 441.905 727.341 440.334 727.339 438.695V188.602C727.341 186.963 727.993 185.391 729.153 184.232C730.313 183.073 731.885 182.421 733.525 182.419H794.09C795.731 182.421 797.303 183.073 798.463 184.232C799.623 185.391 800.275 186.963 800.277 188.602V438.695C800.275 440.334 799.623 441.905 798.463 443.064C797.303 444.223 795.732 444.875 794.092 444.877Z" fill="url(#paint4_linear_33_100)"/>
<path d="M321.752 323.466C328.822 323.466 334.554 318.095 334.554 311.47C334.554 304.845 328.822 299.475 321.752 299.475C314.682 299.475 308.95 304.845 308.95 311.47C308.95 318.095 314.682 323.466 321.752 323.466Z" fill="#3F3D56"/>
<path d="M432.163 243.496C439.233 243.496 444.965 237.767 444.965 230.7C444.965 223.633 439.233 217.904 432.163 217.904C425.093 217.904 419.361 223.633 419.361 230.7C419.361 237.767 425.093 243.496 432.163 243.496Z" fill="#3F3D56"/>
<path d="M542.574 323.466C549.644 323.466 555.375 318.095 555.375 311.47C555.375 304.845 549.644 299.475 542.574 299.475C535.504 299.475 529.772 304.845 529.772 311.47C529.772 318.095 535.504 323.466 542.574 323.466Z" fill="#3F3D56"/>
<path d="M652.985 203.509C660.055 203.509 665.787 197.78 665.787 190.713C665.787 183.646 660.055 177.917 652.985 177.917C645.915 177.917 640.183 183.646 640.183 190.713C640.183 197.78 645.915 203.509 652.985 203.509Z" fill="#3F3D56"/>
<path d="M763.396 158.73C770.466 158.73 776.197 153 776.197 145.932C776.197 138.863 770.466 133.133 763.396 133.133C756.325 133.133 750.594 138.863 750.594 145.932C750.594 153 756.325 158.73 763.396 158.73Z" fill="#3F3D56"/>
<path d="M875.771 368.043C875.771 368.043 856.81 364.774 828.694 339.286C806.448 319.126 776.443 323.09 764.873 325.632C764.478 325.717 764.119 325.921 763.844 326.216C763.569 326.511 763.39 326.883 763.333 327.282C763.276 327.681 763.342 328.089 763.524 328.449C763.705 328.81 763.992 329.106 764.347 329.298C769.023 331.856 776.273 335.592 779.67 336.018C779.67 336.018 772.663 343.264 780.11 347.142C781.002 347.58 781.998 347.762 782.987 347.666C783.976 347.571 784.919 347.203 785.711 346.603C789.293 343.989 799.243 349.927 813.67 353.01C813.67 353.01 869.901 411.176 882.977 401.316L875.771 368.043Z" fill="#FFB9B9"/>
<path d="M972.583 288.964C972.583 288.964 977.814 311.184 972.583 326.87L996.122 330.137L1017.04 319.68V305.957C1017.04 305.957 1007.24 285.043 1009.85 260.862L972.583 288.964Z" fill="#FFB9B9"/>
<path d="M1039.23 770.602C1039.23 770.602 1056.29 803.932 1053.62 826.154C1050.94 848.375 1075.85 828.767 1073.23 815.696C1072.68 831.519 1080.55 760.286 1084.23 743.607C1084.63 741.805 1084.35 739.918 1083.43 738.314C1082.52 736.71 1081.04 735.502 1079.29 734.926C1071.43 732.34 1058.27 729.172 1051.66 734.017C1041.89 741.191 1039.23 770.602 1039.23 770.602Z" fill="#090814"/>
<path d="M974.546 807.199C974.546 807.199 952.315 835.955 946.431 836.61C940.548 837.264 936.623 846.413 946.431 848.374C966.014 851.781 986.154 849.817 1004.71 842.691C1006.57 841.967 1008.13 840.641 1009.14 838.925C1010.15 837.21 1010.56 835.204 1010.3 833.229L1006.54 805.239L974.546 807.199Z" fill="#090814"/>
<path d="M937.929 502.006L916.607 504.845C919.534 529.736 919.448 554.89 916.352 579.761V669.27C916.352 669.27 915.94 677.156 932.314 688.621C949.485 700.553 966.033 713.357 981.893 726.982L1041.22 778.359C1041.22 778.359 1064.76 749.602 1061.49 732.611C1061.49 732.611 1022.26 720.194 1017.03 699.934C1014.03 688.34 998.822 678.623 986.37 672.513C978.542 668.714 972.25 662.352 968.54 654.484C964.829 646.616 963.923 637.716 965.972 629.262C966.699 626.325 967.823 623.5 969.312 620.865C979.774 602.566 994.812 561.393 994.812 561.393L966.044 506.58L937.929 502.006Z" fill="#090814"/>
<path d="M969.316 809.202C969.316 809.202 1007.89 815.737 1009.2 819.659C1010.51 823.581 1009.2 814.43 1009.2 814.43C1009.2 814.43 1031.44 747.117 1026.26 687.657C1021.08 628.197 1032.8 588.971 1032.8 588.971C1032.8 588.971 1046.53 544.529 1038.68 519.041C1030.83 493.553 948.45 504.663 948.45 504.663C948.45 504.663 977.219 571.979 976.566 604.003C976.566 604.003 979.834 700.728 985.719 711.839C985.661 711.782 976.508 806.547 969.316 809.202Z" fill="#090814"/>
<path d="M973.848 305.957C973.848 305.957 977.772 330.11 1017 319.681L990.905 518.345C990.905 518.345 915.059 520.959 915.713 511.81L931.348 391.571L973.848 305.957Z" fill="white"/>
<path d="M974.873 305.302C969.03 309.871 962.042 312.746 954.675 313.613C948.165 314.112 941.837 315.991 936.111 319.126C929.388 322.89 921.897 328.361 919.622 335.024C915.045 348.095 886.277 369.661 873.2 365.088L877.777 404.3C877.777 404.3 915.046 402.34 921.585 387.961L910.483 527.886H920.29C920.29 527.886 925.521 489.98 929.443 482.137C933.366 474.295 941.213 431.161 941.866 420.703C942.52 410.246 952.328 350.119 960.828 339.721L974.886 309.331L974.873 305.302Z" fill="#D6D6E3"/>
<path opacity="0.1" d="M1008.22 280.141C1007.36 273.947 1009.07 270.081 1009.85 262.822L972.583 290.924C972.583 290.924 973.479 294.718 974.161 300.273C976.041 300.577 977.942 300.729 979.846 300.728C992.783 300.728 1002.09 290.626 1008.22 280.141Z" fill="black"/>
<path d="M979.777 298.782C999.277 298.782 1015.09 282.981 1015.09 263.489C1015.09 243.998 999.277 228.197 979.777 228.197C960.277 228.197 944.469 243.998 944.469 263.489C944.469 282.981 960.277 298.782 979.777 298.782Z" fill="#FFB9B9"/>
<path d="M944.291 233.437C944.082 227.946 944.975 222.468 946.915 217.326C946.376 218.135 946.149 219.111 946.274 220.075C946.399 221.038 946.869 221.924 947.597 222.568C948.647 216.963 951.527 211.863 955.784 208.065C953.462 208.449 952.269 211.317 952.842 213.6C953.626 215.828 955.021 217.791 956.869 219.264C956.672 215.812 958.955 212.589 961.841 210.697C964.849 208.971 968.134 207.781 971.55 207.183C970.379 207.599 969.378 208.39 968.704 209.434C968.03 210.477 967.72 211.715 967.823 212.953C967.833 213.373 968.007 213.773 968.308 214.068C968.636 214.278 969.022 214.379 969.411 214.357C972.81 214.488 976.214 214.413 979.604 214.134C983.772 213.665 987.965 213.442 992.159 213.465C1005.28 214.017 1018.46 222.973 1021.4 235.758C1022.01 238.86 1022.33 242.012 1022.36 245.173L1023 261.316C1023.37 266.025 1023.18 270.762 1022.42 275.425C1021.51 279.73 1019.67 283.781 1017.01 287.29C1014.35 290.799 1010.96 293.679 1007.06 295.724C1002.33 288.867 1001.9 280.054 1000.26 271.884C1000.01 270 999.304 268.203 998.218 266.642C997.657 265.869 996.869 265.29 995.964 264.985C995.059 264.679 994.082 264.663 993.167 264.937C991.395 265.645 990.635 268.346 992.104 269.553C990.791 271.1 988.339 269.947 986.859 268.57C982.719 264.644 979.869 259.555 978.686 253.975C978.096 251.168 977.505 247.709 974.749 246.749C973.802 246.488 972.812 246.421 971.838 246.552C966.091 246.946 957.104 249.319 951.542 247.496C946.439 245.818 944.291 238.277 944.291 233.437Z" fill="#090814"/>
<path d="M872.93 365.102C872.93 365.102 867.699 389.255 877.507 404.314L883.065 403.859L880.036 365.498L872.93 365.102Z" fill="#D6D6E3"/>
<path d="M1014.76 299.15L1056.93 335.422C1056.93 335.422 1081.78 360.911 1071.31 402.086C1071.31 402.086 1066.74 462.213 1061.51 464.826C1061.51 464.826 1043.2 501.425 1041.89 536.063C1041.89 536.063 1016.06 484.105 1004.94 514.169C993.807 544.233 969.301 551.107 969.301 551.107L983.685 373.356C983.685 373.356 1019.99 310.203 1014.76 299.15Z" fill="#D6D6E3"/>
<path d="M1034.05 452.351C1034.05 452.351 1044.51 445.162 1061.51 464.769L1019.66 540.58L1005.6 519.368C1005.6 519.368 1035.36 460.847 1034.05 452.351Z" fill="#FFB9B9"/>
<path d="M1023.91 455.292C1023.91 455.292 1047.05 481.264 1056.08 477.101L1064.43 457.65L1033.06 444.182L1023.91 455.292Z" fill="#D6D6E3"/>
<path opacity="0.1" d="M1027.18 375.559C1027.18 375.559 1028.49 422.615 1023.26 440.261Z" fill="black"/>
<path opacity="0.1" d="M921.256 384.708C921.256 384.708 929.102 382.095 929.102 375.559Z" fill="black"/>
</g>
<defs>
<linearGradient id="paint0_linear_33_100" x1="322.014" y1="349.059" x2="322.014" y2="444.877" gradientUnits="userSpaceOnUse">
<stop stop-color="#A0830E"/>
<stop offset="1" stop-color="#D5C069"/>
</linearGradient>
<linearGradient id="paint1_linear_33_100" x1="432.463" y1="269.905" x2="432.463" y2="444.876" gradientUnits="userSpaceOnUse">
<stop stop-color="#A0830E"/>
<stop offset="1" stop-color="#D5C069"/>
</linearGradient>
<linearGradient id="paint2_linear_33_100" x1="542.911" y1="349.059" x2="542.911" y2="444.877" gradientUnits="userSpaceOnUse">
<stop stop-color="#A0830E"/>
<stop offset="1" stop-color="#D5C069"/>
</linearGradient>
<linearGradient id="paint3_linear_33_100" x1="653.359" y1="238.658" x2="653.359" y2="444.879" gradientUnits="userSpaceOnUse">
<stop stop-color="#A0830E"/>
<stop offset="1" stop-color="#D5C069"/>
</linearGradient>
<linearGradient id="paint4_linear_33_100" x1="763.808" y1="182.419" x2="763.808" y2="444.877" gradientUnits="userSpaceOnUse">
<stop stop-color="#A0830E"/>
<stop offset="1" stop-color="#D5C069"/>
</linearGradient>
<clipPath id="clip0_33_100">
<rect width="1126" height="850" fill="white"/>
</clipPath>
</defs>
</svg>
